# xmcd CD database file
#
# Track frame offsets:
#	150
#	8478
#	32560
#	40923
#	66470
#	87275
#	94450
#	109758
#	142428
#	154598
#	181333
#	191965
#	215420
#	248645
#
# Disc length: 3460 seconds
#
# Revision: 4
# Processed by: cddbd v1.5.2PL0 Copyright (c) Steve Scherf et al.
# Submitted via: CDex 1.51
#
DISCID=c60d820e
DTITLE=Sarah Vaughan - Live In Japan - Disc 1
DYEAR=1973
DGENRE=Jazz
TTITLE0=A Foggy Day
TTITLE1=Poor Butterfly
TTITLE2=The Lamp Is Low
TTITLE3='Round Midnight
TTITLE4=Willow Weep For Me
TTITLE5=There Will Never Be Another You
TTITLE6=Misty
TTITLE7=Wave
TTITLE8=Like Someone In Love
TTITLE9=My Funny Valentine
TTITLE10=All Of Me
TTITLE11=(Where Do I Begin) Love Story
TTITLE12=Over The Rainbow
TTITLE13=I Could Write A Book
EXTD=YEAR: 1973
EXTT0=
EXTT1=
EXTT2=
EXTT3=
EXTT4=
EXTT5=
EXTT6=
EXTT7=
EXTT8=
EXTT9=
EXTT10=
EXTT11=
EXTT12=
EXTT13=
PLAYORDER=
